# xmcd
#
# Track frame offsets:
#	150
#	9077
#	21505
#	31447
#	41462
#	51280
#	59777
#	70197
#	83725
#	93882
#	103625
#	113912
#	122180
#	133125
#	151575
#	161025
#	170105
#	184075
#	190880
#	200552
#	213037
#	223937
#	232925
#	240362
#	254087
#	261087
#	266030
#	270850
#	274850
#	291177
#	305437
#	310967
#	313000
#	315982
#
# Disc length: 4243 seconds
#
# Revision: 0
# Processed by: cddbd v1.5.2PL0 Copyright (c) Steve Scherf et al.
# Submitted via: audiograbber 1.83.01
#
DISCID=ed109122
DTITLE=Brett Duncan - Progressive Slide Guitar Licks
DYEAR=1900
DGENRE=
TTITLE0=Standard Guitar Tuning
TTITLE1=Example 01 to 07
TTITLE2=Example 08 to 13
TTITLE3=Example 14 to 19
TTITLE4=Solo Number 1
TTITLE5=Solo Number 2
TTITLE6=Solo Number 3
TTITLE7=Example 20 to 27
TTITLE8=Example 28 to 33
TTITLE9=Example 34 to 39
TTITLE10=Solo Number 4
TTITLE11=Solo Number 5
TTITLE12=Solo Number 6
TTITLE13=Jam Number 1
TTITLE14=Open E Guitar Tuning
TTITLE15=Open D Guitar Tuning
TTITLE16=Example 40 to 47
TTITLE17=Example 48 to 51
TTITLE18=Solo Number 7
TTITLE19=Solo Number 8
TTITLE20=Solo Number 9
TTITLE21=Open G Guitar Tuning
TTITLE22=Open A Guitar Tuning
TTITLE23=Example 52 to 59
TTITLE24=Example 60 to 63
TTITLE25=Solo Number 10
TTITLE26=Solo Number 11
TTITLE27=Solo Number 12
TTITLE28=Example 64 to 75
TTITLE29=Example 76 to 85
TTITLE30=Example 86 to 89
TTITLE31=Solo Number 13
TTITLE32=Solo Number 14
TTITLE33=Solo Number 15
EXTD=
EXTT0=
EXTT1=
EXTT2=
EXTT3=
EXTT4=
EXTT5=
EXTT6=
EXTT7=
EXTT8=
EXTT9=
EXTT10=
EXTT11=
EXTT12=
EXTT13=
EXTT14=
EXTT15=
EXTT16=
EXTT17=
EXTT18=
EXTT19=
EXTT20=
EXTT21=
EXTT22=
EXTT23=
EXTT24=
EXTT25=
EXTT26=
EXTT27=
EXTT28=
EXTT29=
EXTT30=
EXTT31=
EXTT32=
EXTT33=
PLAYORDER=
